<?xml version="1.0" encoding="UTF-8" standalone="no"?>
<!-- Created with Inkscape (http://www.inkscape.org/) -->

<svg
   width="500"
   height="500"
   viewBox="0 0 132.29166 132.29167"
   version="1.1"
   id="svg1"
   xml:space="preserve"
   inkscape:version="1.3.2 (091e20e, 2023-11-25, custom)"
   sodipodi:docname="Logo.svg"
   inkscape:export-filename="Logo.png"
   inkscape:export-xdpi="98.304001"
   inkscape:export-ydpi="98.304001"
   xmlns:inkscape="http://www.inkscape.org/namespaces/inkscape"
   xmlns:sodipodi="http://sodipodi.sourceforge.net/DTD/sodipodi-0.dtd"
   xmlns:xlink="http://www.w3.org/1999/xlink"
   xmlns="http://www.w3.org/2000/svg"
   xmlns:svg="http://www.w3.org/2000/svg"><sodipodi:namedview
     id="namedview1"
     pagecolor="#ffffff"
     bordercolor="#000000"
     borderopacity="0.25"
     inkscape:showpageshadow="2"
     inkscape:pageopacity="0.0"
     inkscape:pagecheckerboard="0"
     inkscape:deskcolor="#d1d1d1"
     inkscape:document-units="mm"
     inkscape:zoom="1.4485269"
     inkscape:cx="254.39638"
     inkscape:cy="236.44711"
     inkscape:window-width="1920"
     inkscape:window-height="1009"
     inkscape:window-x="-8"
     inkscape:window-y="-8"
     inkscape:window-maximized="1"
     inkscape:current-layer="layer1" /><defs
     id="defs1"><linearGradient
       id="linearGradient35"
       inkscape:collect="always"><stop
         style="stop-color:#942525;stop-opacity:1;"
         offset="0"
         id="stop35" /><stop
         style="stop-color:#e03737;stop-opacity:1;"
         offset="1"
         id="stop36" /></linearGradient><inkscape:path-effect
       effect="bspline"
       id="path-effect35"
       is_visible="true"
       lpeversion="1.3"
       weight="33.333333"
       steps="2"
       helper_size="0"
       apply_no_weight="true"
       apply_with_weight="true"
       only_selected="false"
       uniform="false" /><inkscape:path-effect
       effect="bspline"
       id="path-effect34"
       is_visible="true"
       lpeversion="1.3"
       weight="33.333333"
       steps="2"
       helper_size="0"
       apply_no_weight="true"
       apply_with_weight="true"
       only_selected="false"
       uniform="false" /><linearGradient
       id="linearGradient3"
       inkscape:collect="always"><stop
         style="stop-color:#4956c1;stop-opacity:1;"
         offset="0"
         id="stop3" /><stop
         style="stop-color:#ae67de;stop-opacity:1;"
         offset="1"
         id="stop4" /></linearGradient><inkscape:path-effect
       effect="bspline"
       id="path-effect3"
       is_visible="true"
       lpeversion="1.3"
       weight="33.333333"
       steps="2"
       helper_size="0"
       apply_no_weight="true"
       apply_with_weight="true"
       only_selected="false"
       uniform="false" /><inkscape:path-effect
       effect="bspline"
       id="path-effect2"
       is_visible="true"
       lpeversion="1.3"
       weight="33.333333"
       steps="2"
       helper_size="0"
       apply_no_weight="true"
       apply_with_weight="true"
       only_selected="false"
       uniform="false" /><inkscape:path-effect
       effect="bspline"
       id="path-effect1"
       is_visible="true"
       lpeversion="1.3"
       weight="33.333333"
       steps="2"
       helper_size="0"
       apply_no_weight="true"
       apply_with_weight="true"
       only_selected="false"
       uniform="false" /><linearGradient
       inkscape:collect="always"
       xlink:href="#linearGradient3"
       id="linearGradient4"
       x1="37.186245"
       y1="121.85617"
       x2="93.46151"
       y2="29.0665"
       gradientUnits="userSpaceOnUse" /><filter
       inkscape:label="Refractive Glass"
       inkscape:menu-tooltip="Double reflection through glass with some refraction"
       inkscape:menu="Non-Realistic 3D Shaders"
       height="1.1919984"
       y="-0.095999178"
       width="1.1932716"
       x="-0.09663578"
       style="color-interpolation-filters:sRGB"
       id="filter33"><feGaussianBlur
         stdDeviation="4.7297297297297298"
         result="result8"
         in="SourceGraphic"
         id="feGaussianBlur27" /><feComposite
         in="result8"
         in2="result8"
         operator="xor"
         result="result18"
         id="feComposite27" /><feComposite
         in="result8"
         k1="1"
         k2="0.5"
         operator="arithmetic"
         result="result16"
         in2="result18"
         id="feComposite28" /><feComposite
         in2="result8"
         result="result6"
         operator="atop"
         in="result16"
         id="feComposite29" /><feOffset
         result="result17"
         in="result6"
         id="feOffset29" /><feDisplacementMap
         in2="result16"
         in="result17"
         xChannelSelector="A"
         yChannelSelector="A"
         scale="100"
         result="result4"
         id="feDisplacementMap29" /><feComposite
         in2="result4"
         result="result2"
         operator="arithmetic"
         in="result17"
         k3="1"
         id="feComposite30" /><feComposite
         in2="result17"
         result="fbSourceGraphic"
         in="result2"
         operator="out"
         id="feComposite31" /><feComposite
         in="fbSourceGraphic"
         in2="fbSourceGraphic"
         operator="over"
         result="result14"
         id="feComposite32" /><feComposite
         result="result15"
         in2="SourceGraphic"
         operator="in"
         in="result14"
         id="feComposite33" /></filter><linearGradient
       inkscape:collect="always"
       xlink:href="#linearGradient35"
       id="linearGradient36"
       x1="97.173798"
       y1="101.02448"
       x2="124.83152"
       y2="67.476021"
       gradientUnits="userSpaceOnUse" /></defs><g
     inkscape:label="Layer 1"
     inkscape:groupmode="layer"
     id="layer1"><g
       id="g38"
       inkscape:label="Luma"><path
         id="path1"
         style="display:inline;opacity:1;fill:url(#linearGradient4);fill-opacity:1;stroke-width:3.96875;stroke-linecap:round;stroke-linejoin:round;stroke:#220031;stroke-opacity:1;stroke-dasharray:none"
         d="m 63.158853,7.543901 c -3.343057,-0.068944 -5.90598,1.5923938 -9.169234,4.167221 -2.129594,1.680327 -4.341562,4.117901 -7.629425,8.37995 -3.287865,4.262047 -7.732158,10.229017 -11.019999,15.130342 -3.287841,4.901324 -4.317729,6.435167 -5.692932,10.022921 -0.271932,0.709441 -0.525174,1.398957 -0.762227,2.103231 -5.944801,2.909148 -12.914838,8.104918 -16.528969,10.736019 -3.9308201,2.861652 -5.3099478,5.41913 -4.8617178,8.037235 0.44823,2.618105 2.7241788,5.296618 6.1722328,7.54941 3.174594,2.074126 7.34802,3.785261 11.595158,5.469434 0.04256,1.283089 0.07452,2.578976 0.153996,3.815787 0.487096,7.580315 1.704628,13.973412 3.98787,19.848919 2.283242,5.87551 5.632212,11.2332 8.706962,15.52566 3.07475,4.29247 5.875346,7.51945 9.43715,6.84971 3.561806,-0.66973 7.884682,-5.23632 11.568286,-7.58041 3.683604,-2.3441 9.833046,-3.92695 14.369078,-4.41404 4.536033,-0.4871 7.458079,0.12147 12.968272,0.94345 5.510192,0.82198 10.50285,3.31817 14.034286,4.01836 3.53143,0.7002 5.60142,-0.39569 7.79332,-3.37912 2.19191,-2.98344 4.32269,-7.85426 5.81439,-12.2685 1.49171,-4.414247 2.34448,-8.371639 2.46624,-12.5119 0.12177,-4.140262 -0.30457,-8.462865 -1.12654,-12.785783 -0.73644,-3.873081 -1.85137,-7.825547 -3.98942,-13.121679 2.68923,-2.019635 5.36936,-4.048966 7.66154,-6.513815 2.34979,-2.52678 4.29266,-5.510496 5.20124,-8.402587 0.90857,-2.892092 0.7828,-5.692756 -0.75241,-7.793323 -1.53521,-2.100567 -4.47978,-3.500671 -9.86865,-4.596619 C 108.8107,35.781996 101.92037,35.041009 94.852324,34.322244 92.118594,30.972235 89.148383,28.088255 85.57072,25.357933 79.786479,20.943644 71.529938,17.700597 68.668003,15.094756 66.71207,13.313845 69.787694,12.612434 69.719689,10.915503 69.627853,8.6239123 66.238739,7.6074175 63.158853,7.543901 Z"
         sodipodi:nodetypes="ssssscssscsssssssssssscsssscssss"
         inkscape:label="Body" /><g
         id="g36"
         inkscape:label="EyeR"><ellipse
           style="fill:#000000;fill-opacity:1;stroke-width:2.64583;stroke-linecap:round;stroke-linejoin:round"
           id="path33-7"
           ry="11.947104"
           rx="6.6516309"
           cy="70.750259"
           cx="67.388123"
           transform="rotate(-10.454731)"
           inkscape:label="EyeR" /><ellipse
           style="fill:#ffffff;fill-opacity:1;stroke-width:2.64587;stroke-linecap:round;stroke-linejoin:round"
           id="path33-7-9-1-7"
           ry="3.5400331"
           rx="2.0128672"
           cy="65.51368"
           cx="69.348839"
           transform="matrix(0.98411288,-0.17754391,0.18545362,0.98265302,0,0)"
           inkscape:label="EyeShineR" /></g><g
         id="g37"
         inkscape:label="EyeL"><ellipse
           style="fill:#000000;fill-opacity:1;stroke-width:2.64583333;stroke-linecap:round;stroke-linejoin:round;stroke-dasharray:none"
           id="path33"
           cx="45.528152"
           cy="62.964462"
           rx="6.6516309"
           ry="11.947104"
           inkscape:label="EyeL" /><ellipse
           style="fill:#ffffff;fill-opacity:1;stroke-width:2.64587;stroke-linecap:round;stroke-linejoin:round"
           id="ellipse1"
           ry="3.5400331"
           rx="2.0128672"
           cy="65.126503"
           cx="36.580875"
           transform="matrix(0.98411288,-0.17754391,0.18545362,0.98265302,0,0)"
           inkscape:label="EyeShineL" /></g></g><g
       id="g39"
       inkscape:label="Toolbox"
       transform="rotate(-7.8828424,96.094929,127.01433)"><path
         id="path35"
         style="fill:#ededed;fill-opacity:1;stroke:#220031;stroke-width:3.96875;stroke-linecap:round;stroke-linejoin:round;stroke-dasharray:none;stroke-opacity:1"
         inkscape:label="ToolboxHandle"
         d="M 116.35478 49.387018 A 15.434366 14.59484 1.2503485e-14 0 0 103.11715 63.833154 A 15.434366 14.59484 1.2503485e-14 0 0 118.55143 78.427968 A 15.434366 14.59484 1.2503485e-14 0 0 133.9855 63.833348 A 15.434366 14.59484 1.2503485e-14 0 0 118.55122 49.238534 A 15.434366 14.59484 1.2503485e-14 0 0 116.35478 49.387018 z M 117.31509 55.711401 A 8.2057051 8.7071463 89.67286 0 1 118.55414 55.627625 A 8.2057051 8.7071463 89.67286 0 1 127.25828 63.830288 A 8.2057051 8.7071463 89.67286 0 1 118.54851 72.038877 A 8.2057051 8.7071463 89.67286 0 1 109.84437 63.836214 A 8.2057051 8.7071463 89.67286 0 1 117.31509 55.711401 z "
         transform="rotate(13.539341)" /><rect
         style="fill:url(#linearGradient36);fill-opacity:1;stroke:#220031;stroke-width:3.96875;stroke-linecap:round;stroke-linejoin:round;stroke-dasharray:none;stroke-opacity:1"
         id="rect35"
         width="51.878342"
         height="32.293537"
         x="92.612144"
         y="63.561489"
         rx="6.6145816"
         ry="6.6145806"
         transform="rotate(13.539341)"
         inkscape:label="ToolboxCase" /></g></g></svg>
